HIERARCHY
ROOT mixamorig:Hips
{
	OFFSET 0.000000 201.639420 0.000000
	CHANNELS 6 Xposition Yposition Zposition Xrotation Yrotation Zrotation
	JOINT mixamorig:Spine
	{
		OFFSET 0.006200 19.524994 -2.481800
		CHANNELS 3 Xrotation Yrotation Zrotation
		JOINT mixamorig:Spine1
		{
			OFFSET -0.000900 22.835007 -2.825400
			CHANNELS 3 Xrotation Yrotation Zrotation
			JOINT mixamorig:Spine2
			{
				OFFSET -0.020600 26.552490 -3.193300
				CHANNELS 3 Xrotation Yrotation Zrotation
				JOINT mixamorig:Neck
				{
					OFFSET -0.060000 30.701813 1.352200
					CHANNELS 3 Xrotation Yrotation Zrotation
					JOINT mixamorig:Head
					{
						OFFSET -0.087200 22.547607 3.670900
						CHANNELS 3 Xrotation Yrotation Zrotation
						JOINT mixamorig:HeadTop_End
						{
							OFFSET -0.830600 40.355194 7.893500
							CHANNELS 3 Xrotation Yrotation Zrotation
							End Site
							{
								OFFSET 0.000000 30.592346 0.000000
							}
						}
						JOINT mixamorig:RightEye
						{
							OFFSET -6.302100 18.118591 16.197100
							CHANNELS 3 Xrotation Yrotation Zrotation
							End Site
							{
								OFFSET 0.000000 30.592346 0.000000
							}
						}
						JOINT mixamorig:LeftEye
						{
							OFFSET 6.741500 18.382690 16.401899
							CHANNELS 3 Xrotation Yrotation Zrotation
							End Site
							{
								OFFSET 0.000000 30.592346 0.000000
							}
						}
					}
				}
				JOINT mixamorig:LeftShoulder
				{
					OFFSET 11.924900 18.230499 1.425400
					CHANNELS 3 Xrotation Yrotation Zrotation
					JOINT mixamorig:LeftArm
					{
						OFFSET 25.435989 -0.697632 -5.229300
						CHANNELS 3 Xrotation Yrotation Zrotation
						JOINT mixamorig:LeftForeArm
						{
							OFFSET 54.684776 0.000000 0.000000
							CHANNELS 3 Xrotation Yrotation Zrotation
							JOINT mixamorig:LeftHand
							{
								OFFSET 55.098175 0.000000 0.000000
								CHANNELS 3 Xrotation Yrotation Zrotation
								JOINT mixamorig:LeftHandMiddle1
								{
									OFFSET 23.369751 0.000000 0.000000
									CHANNELS 3 Xrotation Yrotation Zrotation
									JOINT mixamorig:LeftHandMiddle2
									{
										OFFSET 6.378677 0.000000 0.000000
										CHANNELS 3 Xrotation Yrotation Zrotation
										JOINT mixamorig:LeftHandMiddle3
										{
											OFFSET 6.148331 0.000000 0.000000
											CHANNELS 3 Xrotation Yrotation Zrotation
											JOINT mixamorig:LeftHandMiddle4
											{
												OFFSET 6.582504 0.000000 0.000000
												CHANNELS 3 Xrotation Yrotation Zrotation
												End Site
												{
													OFFSET -1.168900 6.395691 1.028606
												}
											}
										}
									}
								}
								JOINT mixamorig:LeftHandThumb1
								{
									OFFSET 7.235672 -3.848206 5.434273
									CHANNELS 3 Xrotation Yrotation Zrotation
									JOINT mixamorig:LeftHandThumb2
									{
										OFFSET 6.568451 -3.792297 3.792300
										CHANNELS 3 Xrotation Yrotation Zrotation
										JOINT mixamorig:LeftHandThumb3
										{
											OFFSET 6.063080 -3.500519 3.500518
											CHANNELS 3 Xrotation Yrotation Zrotation
											JOINT mixamorig:LeftHandThumb4
											{
												OFFSET 4.793182 -2.767334 2.767349
												CHANNELS 3 Xrotation Yrotation Zrotation
												End Site
												{
													OFFSET 0.101639 6.054260 1.275483
												}
											}
										}
									}
								}
								JOINT mixamorig:LeftHandIndex1
								{
									OFFSET 23.101074 -0.309540 4.992809
									CHANNELS 3 Xrotation Yrotation Zrotation
									JOINT mixamorig:LeftHandIndex2
									{
										OFFSET 6.226883 0.000000 0.000000
										CHANNELS 3 Xrotation Yrotation Zrotation
										JOINT mixamorig:LeftHandIndex3
										{
											OFFSET 6.094330 0.000000 0.000000
											CHANNELS 3 Xrotation Yrotation Zrotation
											JOINT mixamorig:LeftHandIndex4
											{
												OFFSET 5.482605 0.000000 0.000000
												CHANNELS 3 Xrotation Yrotation Zrotation
												End Site
												{
													OFFSET -1.427902 5.233032 0.797164
												}
											}
										}
									}
								}
								JOINT mixamorig:LeftHandRing1
								{
									OFFSET 22.299240 0.021149 -3.964172
									CHANNELS 3 Xrotation Yrotation Zrotation
									JOINT mixamorig:LeftHandRing2
									{
										OFFSET 6.321869 0.000000 0.000000
										CHANNELS 3 Xrotation Yrotation Zrotation
										JOINT mixamorig:LeftHandRing3
										{
											OFFSET 5.899796 0.000000 0.000000
											CHANNELS 3 Xrotation Yrotation Zrotation
											JOINT mixamorig:LeftHandRing4
											{
												OFFSET 6.517899 0.000000 0.000000
												CHANNELS 3 Xrotation Yrotation Zrotation
												End Site
												{
													OFFSET -1.637299 6.232208 0.980890
												}
											}
										}
									}
								}
								JOINT mixamorig:LeftHandPinky1
								{
									OFFSET 20.463791 -0.302338 -8.562233
									CHANNELS 3 Xrotation Yrotation Zrotation
									JOINT mixamorig:LeftHandPinky2
									{
										OFFSET 6.908646 0.000000 0.000000
										CHANNELS 3 Xrotation Yrotation Zrotation
										JOINT mixamorig:LeftHandPinky3
										{
											OFFSET 4.622849 0.000000 0.000000
											CHANNELS 3 Xrotation Yrotation Zrotation
											JOINT mixamorig:LeftHandPinky4
											{
												OFFSET 5.216080 0.000000 0.000000
												CHANNELS 3 Xrotation Yrotation Zrotation
												End Site
												{
													OFFSET -0.606308 5.116241 0.814926
												}
											}
										}
									}
								}
							}
						}
					}
				}
				JOINT mixamorig:RightShoulder
				{
					OFFSET -12.001300 18.284088 1.348900
					CHANNELS 3 Xrotation Yrotation Zrotation
					JOINT mixamorig:RightArm
					{
						OFFSET -25.308500 -0.751312 -5.164599
						CHANNELS 3 Xrotation Yrotation Zrotation
						JOINT mixamorig:RightForeArm
						{
							OFFSET -54.684429 0.000000 0.000000
							CHANNELS 3 Xrotation Yrotation Zrotation
							JOINT mixamorig:RightHand
							{
								OFFSET -55.150291 0.000000 0.000000
								CHANNELS 3 Xrotation Yrotation Zrotation
								JOINT mixamorig:RightHandMiddle1
								{
									OFFSET -23.317566 0.000000 0.000000
									CHANNELS 3 Xrotation Yrotation Zrotation
									JOINT mixamorig:RightHandMiddle2
									{
										OFFSET -6.378403 0.000000 0.000000
										CHANNELS 3 Xrotation Yrotation Zrotation
										JOINT mixamorig:RightHandMiddle3
										{
											OFFSET -6.148193 0.000000 0.000000
											CHANNELS 3 Xrotation Yrotation Zrotation
											JOINT mixamorig:RightHandMiddle4
											{
												OFFSET -6.583389 0.000000 0.000000
												CHANNELS 3 Xrotation Yrotation Zrotation
												End Site
												{
													OFFSET 1.171692 6.395905 1.029786
												}
											}
										}
									}
								}
								JOINT mixamorig:RightHandThumb1
								{
									OFFSET -7.190521 -3.860474 5.435846
									CHANNELS 3 Xrotation Yrotation Zrotation
									JOINT mixamorig:RightHandThumb2
									{
										OFFSET -6.567429 -3.791718 3.791708
										CHANNELS 3 Xrotation Yrotation Zrotation
										JOINT mixamorig:RightHandThumb3
										{
											OFFSET -6.062469 -3.500153 3.500166
											CHANNELS 3 Xrotation Yrotation Zrotation
											JOINT mixamorig:RightHandThumb4
											{
												OFFSET -4.792618 -2.767029 2.767022
												CHANNELS 3 Xrotation Yrotation Zrotation
												End Site
												{
													OFFSET -0.100327 6.053253 1.276754
												}
											}
										}
									}
								}
								JOINT mixamorig:RightHandIndex1
								{
									OFFSET -23.048981 -0.310791 4.992554
									CHANNELS 3 Xrotation Yrotation Zrotation
									JOINT mixamorig:RightHandIndex2
									{
										OFFSET -6.227539 0.000000 0.000000
										CHANNELS 3 Xrotation Yrotation Zrotation
										JOINT mixamorig:RightHandIndex3
										{
											OFFSET -6.095047 0.000000 0.000000
											CHANNELS 3 Xrotation Yrotation Zrotation
											JOINT mixamorig:RightHandIndex4
											{
												OFFSET -5.484772 0.000000 0.000000
												CHANNELS 3 Xrotation Yrotation Zrotation
												End Site
												{
													OFFSET 1.420593 5.237305 0.797056
												}
											}
										}
									}
								}
								JOINT mixamorig:RightHandRing1
								{
									OFFSET -22.246323 0.020569 -3.963762
									CHANNELS 3 Xrotation Yrotation Zrotation
									JOINT mixamorig:RightHandRing2
									{
										OFFSET -6.322128 0.000000 0.000000
										CHANNELS 3 Xrotation Yrotation Zrotation
										JOINT mixamorig:RightHandRing3
										{
											OFFSET -5.900024 0.000000 0.000000
											CHANNELS 3 Xrotation Yrotation Zrotation
											JOINT mixamorig:RightHandRing4
											{
												OFFSET -6.518356 0.000000 0.000000
												CHANNELS 3 Xrotation Yrotation Zrotation
												End Site
												{
													OFFSET 1.636398 6.232697 0.982186
												}
											}
										}
									}
								}
								JOINT mixamorig:RightHandPinky1
								{
									OFFSET -20.411011 -0.303314 -8.561701
									CHANNELS 3 Xrotation Yrotation Zrotation
									JOINT mixamorig:RightHandPinky2
									{
										OFFSET -6.907349 0.000000 0.000000
										CHANNELS 3 Xrotation Yrotation Zrotation
										JOINT mixamorig:RightHandPinky3
										{
											OFFSET -4.623840 0.000000 0.000000
											CHANNELS 3 Xrotation Yrotation Zrotation
											JOINT mixamorig:RightHandPinky4
											{
												OFFSET -5.218353 0.000000 0.000000
												CHANNELS 3 Xrotation Yrotation Zrotation
												End Site
												{
													OFFSET 0.602097 5.118835 0.816273
												}
											}
										}
									}
								}
							}
						}
					}
				}
			}
		}
	}
	JOINT mixamorig:LeftUpLeg
	{
		OFFSET 18.168400 -13.561905 -0.039000
		CHANNELS 3 Xrotation Yrotation Zrotation
		JOINT mixamorig:LeftLeg
		{
			OFFSET 0.577358 -80.825211 -3.695000
			CHANNELS 3 Xrotation Yrotation Zrotation
			JOINT mixamorig:LeftFoot
			{
				OFFSET -0.577356 -83.370262 -6.520700
				CHANNELS 3 Xrotation Yrotation Zrotation
				JOINT mixamorig:LeftToeBase
				{
					OFFSET 0.750401 -20.798306 25.135401
					CHANNELS 3 Xrotation Yrotation Zrotation
					JOINT mixamorig:LeftToe_End
					{
						OFFSET -0.000500 0.001200 19.917799
						CHANNELS 3 Xrotation Yrotation Zrotation
						End Site
						{
							OFFSET 0.000000 19.917805 0.000000
						}
					}
				}
			}
		}
	}
	JOINT mixamorig:RightUpLeg
	{
		OFFSET -18.162500 -13.585098 -0.041000
		CHANNELS 3 Xrotation Yrotation Zrotation
		JOINT mixamorig:RightLeg
		{
			OFFSET -0.595024 -80.945297 -3.631900
			CHANNELS 3 Xrotation Yrotation Zrotation
			JOINT mixamorig:RightFoot
			{
				OFFSET 0.595024 -83.218193 -6.561200
				CHANNELS 3 Xrotation Yrotation Zrotation
				JOINT mixamorig:RightToeBase
				{
					OFFSET -0.753601 -20.807106 25.115000
					CHANNELS 3 Xrotation Yrotation Zrotation
					JOINT mixamorig:RightToe_End
					{
						OFFSET 0.000299 0.001700 19.918200
						CHANNELS 3 Xrotation Yrotation Zrotation
						End Site
						{
							OFFSET 0.000000 19.918203 0.000000
						}
					}
				}
			}
		}
	}
}
MOTION
Frames: 4
Frame Time: 0.033333
33.820610 89.819412 12.006760 22.406506 -66.973058 36.166685 20.571896 -5.954076 -1.623106 15.793656 -5.924812 -1.753951 15.658764 -6.356051 -1.594739 2.578721 -1.302553 -3.101861 -14.509670 -11.894711 4.930425 0.000001 -0.000000 0.000000 0.000001 -0.000000 0.000000 0.000001 -0.000000 0.000000 1.277651 -7.727990 1.273468 -84.926149 -55.269273 -82.488543 -0.000008 -26.177549 -0.000007 -3.509468 -19.456279 34.295234 0.213446 1.704431 -14.274966 0.181086 1.571814 -13.142853 0.071014 0.988349 -8.218772 0.000002 -0.000000 0.000002 -8.150901 5.853421 4.869983 -26.068467 17.868272 10.770296 -11.494352 7.924208 6.697038 0.000001 0.000001 -0.000001 0.184719 1.587278 -13.274562 0.153848 1.450340 -12.110596 0.054573 0.866901 -7.202945 0.000002 0.000001 -0.000000 0.227282 1.757900 -14.732943 0.192953 1.621788 -13.568774 0.078832 1.041057 -8.660494 -0.000000 0.000000 0.000001 1.377368 5.811151 -15.609665 0.229669 -2.281194 -15.374862 0.104446 1.197206 -9.972147 -0.000001 0.000000 0.000002 4.654741 21.736336 -1.115663 -69.410172 49.277981 55.908947 -0.000006 13.792808 0.000004 4.828265 27.639658 -57.612837 1.217387 -3.935323 34.366718 0.941622 -3.499082 30.115438 0.239223 -1.811698 15.043357 0.000003 0.000001 -0.000003 29.779833 6.750720 38.444512 18.478288 0.636952 -49.548436 3.573709 9.061242 -27.590022 0.000000 -0.000002 -0.000003 1.217374 -3.935326 34.366715 0.941652 -3.499113 30.116039 0.239245 -1.811735 15.043647 -0.000000 -0.000003 -0.000004 1.217377 -3.935336 34.366718 0.941617 -3.499067 30.115458 0.239225 -1.811695 15.043357 -0.000001 -0.000002 0.000002 1.217379 -3.935322 34.366718 0.941616 -3.499073 30.115452 0.239231 -1.811699 15.043348 -0.000001 -0.000000 0.000000 -97.269885 -13.752593 34.974342 122.111857 -5.693533 3.627151 -10.466990 -4.723330 -31.075701 -9.082757 -0.000005 0.000005 0.000000 -0.000001 0.000001 -55.353646 55.689831 -20.903531 141.837976 -12.722707 2.767722 15.327429 29.007243 17.842580 -74.210012 -6.721658 14.741261 0.000000 -0.000000 -0.000001 
35.733856 88.952469 13.232601 20.733859 -65.464590 34.872473 21.147270 -4.967214 -1.378793 16.308339 -5.066517 -1.526472 16.192275 -5.486874 -1.398056 2.547112 -1.957079 -2.182448 -15.541742 -14.684895 5.559598 -0.000000 0.000001 0.000001 -0.000000 0.000001 0.000001 -0.000000 0.000001 0.000001 1.286496 -7.460435 3.919786 -83.796244 -55.804415 -82.266063 0.000003 -32.656128 -0.000017 -0.821679 -15.654718 34.989266 0.165212 1.502181 -12.550637 0.065992 0.952909 -7.922045 0.041457 0.755963 -6.277141 0.000001 0.000003 -0.000002 -8.138670 5.833168 4.877651 -26.068462 17.868270 10.770296 -11.494363 7.924206 6.697050 0.000002 -0.000004 -0.000000 0.130276 1.335754 -11.140623 0.044193 0.780365 -6.480592 0.024773 0.584798 -4.851814 -0.000001 -0.000000 0.000001 0.182287 1.576971 -13.186745 0.076401 1.025007 -8.525896 0.050039 0.830253 -6.896926 -0.000000 0.000000 -0.000001 1.274601 5.712063 -14.585813 0.105964 -2.811271 -10.868965 0.080242 1.050227 -8.737336 -0.000001 -0.000003 0.000004 4.639802 20.937998 -0.315611 -64.846335 50.146986 49.608548 0.000005 10.595896 -0.000009 0.037674 25.703267 -55.779648 1.137571 -3.816316 33.186414 0.941543 -3.498908 30.113932 0.239200 -1.811606 15.042604 -0.000001 -0.000001 -0.000001 29.777972 6.748760 38.443942 18.477207 0.638720 -49.548392 3.572847 9.061798 -27.589712 0.000000 -0.000002 -0.000002 1.137576 -3.816313 33.186414 0.941544 -3.498946 30.114393 0.239224 -1.811632 15.042797 0.000002 0.000003 0.000001 1.137570 -3.816325 33.186417 0.941545 -3.498902 30.113911 0.239193 -1.811613 15.042609 0.000000 0.000003 0.000003 1.137570 -3.816310 33.186414 0.941540 -3.498900 30.113918 0.239190 -1.811611 15.042616 0.000000 0.000001 0.000001 -100.383475 -12.100811 33.786747 123.131645 -5.845093 3.580086 -10.597618 -3.779558 -28.169667 -7.940792 0.000003 -0.000001 -0.000000 -0.000001 0.000000 -53.449758 56.465150 -24.257451 142.285654 -13.349153 3.010723 15.499311 28.649597 16.976573 -75.116447 -6.676670 13.317731 0.000001 -0.000000 -0.000001 
37.330940 88.269775 14.326290 19.291820 -63.826472 33.553765 21.539336 -4.105485 -1.247299 16.662948 -4.312834 -1.332889 16.568453 -4.708090 -1.229408 2.535884 -2.552570 -1.048528 -16.603116 -17.222293 6.629811 0.000000 0.000000 0.000000 0.000000 0.000000 0.000000 0.000000 0.000000 0.000000 1.242973 -6.969870 6.126225 -81.393548 -57.080000 -80.937708 -0.000014 -39.378879 -0.000014 2.308545 -12.385103 35.408701 0.204441 1.668663 -13.969085 0.039012 0.733468 -6.089592 0.038824 0.731558 -6.073618 0.000001 0.000000 -0.000000 -8.106628 5.779527 4.897732 -26.068448 17.868289 10.770296 -11.494358 7.924202 6.697052 0.000003 -0.000001 0.000001 0.154136 1.451643 -12.121641 0.018664 0.507756 -4.211352 0.018676 0.507756 -4.211338 -0.000002 -0.000001 -0.000004 0.229193 1.765185 -14.795441 0.049829 0.828639 -6.883411 0.049841 0.828643 -6.883424 0.000003 -0.000001 0.000002 1.496404 5.921561 -16.774217 0.082628 -2.939253 -9.792160 0.090636 1.115851 -9.288116 0.000002 0.000000 -0.000005 4.601951 19.917375 0.532113 -61.805651 49.488235 45.134474 0.000011 9.840616 -0.000019 -3.709161 24.025489 -52.486927 1.060261 -3.695687 32.006441 0.941467 -3.498810 30.112894 0.239200 -1.811548 15.042069 0.000001 -0.000003 0.000000 29.776223 6.746829 38.443358 18.476553 0.639753 -49.548364 3.572334 9.062129 -27.589543 -0.000001 0.000001 0.000001 1.060264 -3.695688 32.006444 0.941474 -3.498815 30.113133 0.239203 -1.811564 15.042173 0.000002 0.000004 -0.000001 1.060271 -3.695695 32.006437 0.941471 -3.498802 30.112897 0.239188 -1.811543 15.042071 -0.000001 0.000004 0.000001 1.060270 -3.695680 32.006441 0.941463 -3.498808 30.112914 0.239202 -1.811547 15.042066 -0.000001 0.000003 0.000001 -103.184433 -10.672619 32.680270 123.867134 -5.993134 3.549083 -10.644542 -3.034862 -25.909274 -6.904367 -0.000019 -0.000008 0.000000 0.000000 -0.000000 -51.815885 56.450257 -27.444436 142.668855 -13.792747 3.196166 15.708930 27.803793 15.923507 -75.669733 -6.591693 11.950457 0.000000 0.000000 -0.000001 
38.676319 87.803528 15.125347 18.317328 -62.363124 32.376565 21.708559 -3.559813 -1.191472 16.822471 -3.810809 -1.184106 16.745643 -4.176457 -1.097130 2.561721 -3.054273 0.041959 -17.715660 -19.530156 7.971142 -0.000001 0.000001 0.000000 -0.000001 0.000001 0.000000 -0.000001 0.000001 0.000000 1.146240 -6.343049 7.722155 -77.580465 -58.952428 -77.937294 0.000024 -45.543695 0.000016 5.406694 -9.292959 35.054628 0.249015 1.838538 -15.425738 0.059842 0.907789 -7.544717 0.059612 0.905886 -7.528748 0.000004 0.000000 0.000002 -8.055694 5.692732 4.929541 -26.068445 17.868289 10.770292 -11.494380 7.924203 6.697041 0.000003 -0.000002 0.000003 0.180766 1.570491 -13.131588 0.028675 0.629083 -5.220222 0.028661 0.629077 -5.220223 -0.000001 0.000001 -0.000000 0.282823 1.956859 -16.446424 0.076528 1.025807 -8.532610 0.076525 1.025799 -8.532604 -0.000003 -0.000000 -0.000003 1.731956 6.127332 -19.018394 0.133471 -2.675641 -12.014300 0.139117 1.379896 -11.513825 -0.000002 -0.000004 0.000005 4.568219 19.064011 1.185864 -60.566101 48.469888 42.846166 0.000000 10.325577 -0.000024 -6.142082 21.999534 -47.915286 0.990416 -3.581713 30.905633 0.941426 -3.498751 30.112395 0.239177 -1.811518 15.041832 0.000002 -0.000001 -0.000000 29.774656 6.744980 38.442685 18.476444 0.639976 -49.548433 3.572227 9.062201 -27.589537 0.000001 0.000000 -0.000003 0.990423 -3.581712 30.905622 0.941435 -3.498724 30.112364 0.239184 -1.811522 15.041808 -0.000001 0.000001 -0.000000 0.990418 -3.581721 30.905629 0.941435 -3.498745 30.112392 0.239172 -1.811512 15.041823 -0.000001 -0.000004 -0.000001 0.990417 -3.581709 30.905629 0.941440 -3.498743 30.112381 0.239179 -1.811515 15.041828 -0.000001 0.000003 0.000001 -105.557889 -9.679944 31.945307 124.301889 -6.204444 3.508207 -10.577461 -2.520913 -24.255293 -5.949783 -0.000006 -0.000004 0.000000 -0.000003 0.000000 -51.102171 55.992921 -29.550492 142.908321 -14.046371 3.286556 16.132965 27.051036 14.927252 -75.889460 -6.521937 10.996268 0.000000 0.000000 0.000000 
